<svg width="140" height="82" viewBox="0 0 140 82" fill="none" xmlns="http://www.w3.org/2000/svg">
<path d="M10.5449 7.50121V10.0132H7.08574V20.3727H3.90552V10.0132H0.446335V7.50121H10.5449ZM20.2682 18.0991H15.3956L14.6145 20.3727H11.2855L16.0093 7.50121H19.6917L24.4155 20.3727H21.0493L20.2682 18.0991ZM19.4499 15.6788L17.8319 10.9666L16.2325 15.6788H19.4499ZM30.5771 20.501C29.6224 20.501 28.7669 20.3482 28.0106 20.0426C27.2543 19.737 26.6467 19.2848 26.188 18.6858C25.7416 18.0869 25.5061 17.3657 25.4813 16.5222H28.8661C28.9157 16.999 29.083 17.3657 29.3682 17.6224C29.6534 17.8668 30.0253 17.9891 30.4841 17.9891C30.9552 17.9891 31.3272 17.8852 31.5999 17.6774C31.8727 17.4573 32.0091 17.1579 32.0091 16.7789C32.0091 16.4611 31.8975 16.1983 31.6743 15.9905C31.4636 15.7827 31.197 15.6116 30.8746 15.4771C30.5647 15.3427 30.1183 15.1899 29.5356 15.0187C28.6925 14.762 28.0044 14.5053 27.4712 14.2486C26.9381 13.9919 26.4794 13.613 26.095 13.1118C25.7107 12.6107 25.5185 11.9567 25.5185 11.15C25.5185 9.95204 25.9586 9.01694 26.8389 8.34464C27.7192 7.66012 28.8661 7.31786 30.2795 7.31786C31.7177 7.31786 32.877 7.66012 33.7573 8.34464C34.6376 9.01694 35.1087 9.95816 35.1707 11.1683H31.7301C31.7053 10.7527 31.5504 10.4288 31.2652 10.1965C30.98 9.95205 30.6143 9.82981 30.1679 9.82981C29.7836 9.82981 29.4736 9.93371 29.238 10.1415C29.0025 10.3371 28.8847 10.6243 28.8847 11.0033C28.8847 11.4189 29.083 11.7428 29.4798 11.9751C29.8766 12.2073 30.4965 12.4579 31.3396 12.7268C32.1827 13.0079 32.8646 13.2769 33.3853 13.5336C33.9185 13.7903 34.3772 14.1631 34.7616 14.652C35.1459 15.141 35.3381 15.7705 35.3381 16.5406C35.3381 17.274 35.1459 17.9402 34.7616 18.5391C34.3896 19.1381 33.8441 19.6148 33.125 19.9693C32.4059 20.3238 31.5566 20.501 30.5771 20.501ZM44.8645 20.3727L40.4754 14.6887V20.3727H37.2952V7.50121H40.4754V13.1485L44.8273 7.50121H48.5655L43.5069 13.8086L48.7514 20.3727H44.8645Z" fill="#B33771"/>
<path d="M34.3026 40.9816V45.7672H39.231V46.8306H34.3026V51.6895H39.7889V52.753H33.0007V39.9182H39.7889V40.9816H34.3026ZM47.0408 46.3539L50.9835 52.753H49.5329L46.2225 47.399L43.0794 52.753H41.6288L45.5529 46.2989L41.6288 39.9365H43.0794L46.3712 45.2721L49.5515 39.9365H51.0021L47.0408 46.3539ZM52.6379 46.3356C52.6379 45.0765 52.9169 43.952 53.4748 42.9618C54.0328 41.9595 54.7953 41.1833 55.7624 40.6332C56.7294 40.071 57.8081 39.7898 58.9984 39.7898C60.449 39.7898 61.6889 40.1321 62.7179 40.8166C63.7594 41.4889 64.5157 42.4423 64.9869 43.6769H63.4618C63.0899 42.809 62.5196 42.1306 61.7508 41.6417C60.9945 41.1528 60.077 40.9083 58.9984 40.9083C58.0437 40.9083 57.182 41.1283 56.4133 41.5684C55.657 42.0084 55.0618 42.644 54.6279 43.4752C54.1939 44.2942 53.977 45.2477 53.977 46.3356C53.977 47.4235 54.1939 48.3769 54.6279 49.1959C55.0618 50.0149 55.657 50.6444 56.4133 51.0845C57.182 51.5245 58.0437 51.7446 58.9984 51.7446C60.077 51.7446 60.9945 51.5062 61.7508 51.0295C62.5196 50.5405 63.0899 49.8682 63.4618 49.0125H64.9869C64.5157 50.2349 63.7594 51.1823 62.7179 51.8546C61.6765 52.5269 60.4366 52.863 58.9984 52.863C57.8081 52.863 56.7294 52.588 55.7624 52.0379C54.7953 51.4756 54.0328 50.6994 53.4748 49.7093C52.9169 48.7192 52.6379 47.5946 52.6379 46.3356ZM77.2335 39.9365V52.753H75.9317V46.7573H68.8831V52.753H67.5812V39.9365H68.8831V45.6938H75.9317V39.9365H77.2335ZM87.7356 49.7093H81.8215L80.687 52.753H79.3108L84.0532 40.1015H85.5224L90.2463 52.753H88.87L87.7356 49.7093ZM87.345 48.6458L84.7785 41.715L82.212 48.6458H87.345ZM102.136 52.753H100.835L93.6373 41.9717V52.753H92.3354V39.9365H93.6373L100.835 50.6994V39.9365H102.136V52.753ZM115.314 43.6769C114.942 42.8335 114.372 42.1734 113.603 41.6967C112.847 41.2078 111.954 40.9633 110.925 40.9633C109.958 40.9633 109.09 41.1833 108.321 41.6234C107.553 42.0634 106.945 42.6929 106.499 43.5119C106.052 44.3187 105.829 45.2599 105.829 46.3356C105.829 47.4112 106.052 48.3586 106.499 49.1775C106.945 49.9965 107.553 50.626 108.321 51.0661C109.09 51.5062 109.958 51.7262 110.925 51.7262C111.83 51.7262 112.642 51.5368 113.361 51.1578C114.093 50.7666 114.675 50.2166 115.109 49.5076C115.556 48.7864 115.81 47.9491 115.872 46.9956H110.404V45.9505H117.248V46.8856C117.186 48.0102 116.876 49.0309 116.318 49.9476C115.76 50.8522 115.01 51.5673 114.068 52.0929C113.138 52.6185 112.09 52.8813 110.925 52.8813C109.722 52.8813 108.631 52.6063 107.652 52.0563C106.672 51.494 105.897 50.7177 105.327 49.7276C104.769 48.7253 104.49 47.5946 104.49 46.3356C104.49 45.0765 104.769 43.952 105.327 42.9618C105.897 41.9595 106.672 41.1833 107.652 40.6332C108.631 40.071 109.722 39.7898 110.925 39.7898C112.314 39.7898 113.529 40.1321 114.57 40.8166C115.612 41.5011 116.368 42.4546 116.839 43.6769H115.314ZM120.935 40.9816V45.7672H125.863V46.8306H120.935V51.6895H126.421V52.753H119.633V39.9182H126.421V40.9816H120.935Z" fill="#B33771"/>
<path d="M60.8396 27.3933C61.3438 26.8961 61.3438 26.0899 60.8396 25.5926L52.6204 17.4894C52.1162 16.9922 51.2982 16.9922 50.7938 17.4894C50.2894 17.9867 50.2894 18.7929 50.7938 19.2901L58.0995 26.493L50.7938 33.6958C50.2894 34.193 50.2894 34.9992 50.7938 35.4965C51.2982 35.9937 52.1162 35.9937 52.6204 35.4965L60.8396 27.3933ZM3.09962 27.7663H59.9262V25.2197H3.09962V27.7663Z" fill="#58B19F"/>
<path d="M7.60963 57.4484C6.40729 58.6524 6.42036 60.5873 7.63882 61.7699L27.4953 81.0445C28.7137 82.2272 30.6762 82.2099 31.8786 81.0058C33.081 79.8018 33.0679 77.8669 31.8494 76.6843L14.1993 59.5519L31.6161 42.1115C32.8185 40.9075 32.8054 38.9727 31.5869 37.7899C30.3684 36.6071 28.4059 36.6244 27.2035 37.8283L7.60963 57.4484ZM66.6204 56.0361L9.79529 56.5342L9.83656 62.646L66.6617 62.1479L66.6204 56.0361Z" fill="#58B19F"/>
</svg>
